<?xml version="1.0" encoding="UTF-8"?>
<svg version="1.1" xmlns="http://www.w3.org/2000/svg" width="512" height="512">
<path d="M0 0 C168.96 0 337.92 0 512 0 C512 168.96 512 337.92 512 512 C343.04 512 174.08 512 0 512 C0 343.04 0 174.08 0 0 Z " fill="#FEFEFE" transform="translate(0,0)"/>
<path d="M0 0 C22.44499373 -0.04522815 44.8899503 -0.08203643 67.3349781 -0.10362434 C77.75767784 -0.11391648 88.18034714 -0.1279372 98.60302734 -0.15087891 C107.69236074 -0.17087612 116.78167209 -0.18373141 125.87102687 -0.18817699 C130.67927524 -0.19077368 135.48746056 -0.19683365 140.29568863 -0.21146011 C144.83136275 -0.22514428 149.3669485 -0.22920098 153.9026413 -0.22621536 C155.55769966 -0.22676072 157.21276131 -0.2306731 158.86780167 -0.23841095 C186.42229521 -0.36080036 210.32814283 6.03555286 231 25 C231.48952148 25.44182617 231.97904297 25.88365234 232.48339844 26.33886719 C240.55964604 33.69813656 246.57993414 41.53108016 252 51 C252.56460938 51.97582031 253.12921875 52.95164063 253.7109375 53.95703125 C265.27675933 75.41544688 267.68540729 102.59272467 261 126 C252.45813797 152.66207185 234.47689355 174.90954405 209.55737305 187.89233398 C202.58373477 191.36947074 195.49956831 193.89019237 188 196 C187.13632812 196.24492187 186.27265625 196.48984375 185.3828125 196.7421875 C180.18748267 198.05450265 175.34944601 198.16982368 170 198 C177.06845127 207.92455235 184.18691712 217.8121838 191.32666016 227.68554688 C194.59384139 232.20449612 197.8580292 236.72560847 201.12207031 241.24682617 C203.84033401 245.01161322 206.56064199 248.77488961 209.28515625 252.53515625 C215.0698625 260.52356012 220.8079679 268.54115819 226.48291016 276.60791016 C231.7122617 284.03115549 237.0354208 291.38558073 242.36328125 298.73828125 C243.98509064 300.97939733 245.60265132 303.22351315 247.21875 305.46875 C248.29155508 306.9584137 249.3644716 308.44799715 250.4375 309.9375 C250.96311523 310.66718994 251.48873047 311.39687988 252.03027344 312.14868164 C254.94814755 316.1897338 257.88997016 320.21147615 260.859375 324.21484375 C261.49818604 325.0766626 262.13699707 325.93848145 262.79516602 326.82641602 C264.02977827 328.48918435 265.26712223 330.14992887 266.50756836 331.80834961 C267.06581299 332.55995361 267.62405762 333.31155762 268.19921875 334.0859375 C268.69252686 334.7464209 269.18583496 335.4069043 269.6940918 336.08740234 C270.99646323 337.99482014 271.98792745 339.92769541 273 342 C263.33409558 342.44277974 253.67173865 342.77901674 243.99786186 342.98443127 C239.50385329 343.08310039 235.01683647 343.2164905 230.52685547 343.43334961 C201.62298651 344.79317505 201.62298651 344.79317505 194.05361938 340.21981812 C189.50422366 335.97945205 186.73433075 331.12355158 184.21505737 325.49249268 C182.15542293 321.26748743 179.27531531 317.663272 176.4375 313.9375 C175.3605086 312.4508601 174.28709175 310.96161791 173.21875 309.46875 C171.05686813 306.46525961 168.8901411 303.46537288 166.71875 300.46875 C161.43603244 293.17566274 156.18170771 285.86527507 151 278.5 C141.84092398 265.48637283 132.47853429 252.62575212 123.0222168 239.8269043 C119.22680211 234.68351601 115.47644115 229.51163404 111.7746582 224.30053711 C107.64794979 218.49185276 103.46961109 212.72076767 99.28881836 206.95092773 C98.7603833 206.22075439 98.23194824 205.49058105 97.6875 204.73828125 C97.21699219 204.08899658 96.74648437 203.43971191 96.26171875 202.77075195 C93.66269383 199.12316531 92.74884798 197.28400572 92.74121094 192.82592773 C92.73490662 191.77150986 92.72860229 190.71709198 92.72210693 189.63072205 C92.7261554 188.49316971 92.73020386 187.35561737 92.734375 186.18359375 C92.73246155 185.01619156 92.7305481 183.84878937 92.72857666 182.64601135 C92.72721499 180.17717269 92.73091014 177.70832687 92.73925781 175.23950195 C92.74996689 171.44921895 92.73935665 167.65940892 92.7265625 163.86914062 C92.72788391 161.47395728 92.73044592 159.07877423 92.734375 156.68359375 C92.73032654 155.54401718 92.72627808 154.40444061 92.72210693 153.23033142 C92.73156342 151.65343285 92.73156342 151.65343285 92.74121094 150.04467773 C92.74280212 149.11662827 92.74439331 148.1885788 92.74603271 147.23240662 C93 145 93 145 95 143 C97.88642883 142.75517273 97.88642883 142.75517273 101.63012695 142.76049805 C102.31179428 142.75848389 102.99346161 142.75646973 103.69578552 142.75439453 C105.1799256 142.75084386 106.66408079 142.75162247 108.14821815 142.75617027 C110.50867139 142.7617671 112.86863367 142.75259462 115.22904968 142.7389679 C121.94186338 142.70188594 128.6545184 142.68319868 135.36743164 142.69458008 C139.47435027 142.70048732 143.5805885 142.68188968 147.68736839 142.64869118 C149.242404 142.64081378 150.79751533 142.64190847 152.35253334 142.65271568 C165.6910586 142.74130387 177.93359924 140.44556547 188 131 C198.22233102 120.69353456 201.49946531 110.880114 201.57885742 96.546875 C201.32691519 84.78049201 196.83049972 76.75385115 189 68 C182.71381654 62.57199858 175.9159526 59.35202426 168 57 C167.42789921 56.8232779 166.85579842 56.64655581 166.26636124 56.46447849 C163.24783133 55.84584709 160.37488838 55.8582754 157.29290771 55.84178162 C156.61978743 55.83684364 155.94666714 55.83190566 155.25314927 55.82681805 C152.99917227 55.81146821 150.74522371 55.80308927 148.49121094 55.79467773 C146.87487539 55.78509723 145.25854234 55.77508705 143.64221191 55.76467896 C139.25417495 55.73764248 134.86612724 55.7166261 130.47805309 55.69667697 C125.8922702 55.67480968 121.30652037 55.64742462 116.72076416 55.62062073 C108.03692028 55.57070391 99.35305804 55.52576132 90.66917825 55.48259836 C80.78291561 55.43321737 70.89668615 55.37830243 61.01045561 55.32291877 C40.6736665 55.20911423 20.33684689 55.1030024 0 55 C0 36.85 0 18.7 0 0 Z " fill="#010101" transform="translate(129,80)"/>
<path d="M0 0 C21.12 0 42.24 0 64 0 C64 85.47 64 170.94 64 259 C42.88 259 21.76 259 0 259 C0 173.53 0 88.06 0 0 Z " fill="#020202" transform="translate(129,164)"/>
</svg>
